HIERARCHY
ROOT Hips
{
	OFFSET 0.000000 71.427986 0.000000
	CHANNELS 6 Xposition Yposition Zposition Xrotation Yrotation Zrotation
	JOINT Pelvis
	{
		OFFSET 0.000000 0.000000 0.000000
		CHANNELS 3 Xrotation Yrotation Zrotation
		JOINT LeftUpLeg
		{
			OFFSET 6.797100 -2.508499 -1.318700
			CHANNELS 3 Xrotation Yrotation Zrotation
			JOINT LeftLeg
			{
				OFFSET 0.069008 -29.241863 0.690200
				CHANNELS 3 Xrotation Yrotation Zrotation
				JOINT LeftFoot
				{
					OFFSET -0.069008 -29.568123 -0.266800
					CHANNELS 3 Xrotation Yrotation Zrotation
					JOINT LeftToeBase
					{
						OFFSET 3.145500 -8.631000 16.059900
						CHANNELS 3 Xrotation Yrotation Zrotation
						End Site
						{
							OFFSET 0.000000 18.501587 0.000000
						}
					}
				}
			}
			JOINT Left_ShortSleeve
			{
				OFFSET 0.265923 -10.480953 1.153800
				CHANNELS 3 Xrotation Yrotation Zrotation
				End Site
				{
					OFFSET 1.725763 19.823879 0.000000
				}
			}
		}
		JOINT RightUpLeg
		{
			OFFSET -6.797100 -2.508499 -1.318700
			CHANNELS 3 Xrotation Yrotation Zrotation
			JOINT RightLeg
			{
				OFFSET -0.082453 -29.241932 0.688000
				CHANNELS 3 Xrotation Yrotation Zrotation
				JOINT RightFoot
				{
					OFFSET 0.082453 -29.568058 -0.264600
					CHANNELS 3 Xrotation Yrotation Zrotation
					JOINT RightToeBase
					{
						OFFSET -3.115300 -8.682800 16.113400
						CHANNELS 3 Xrotation Yrotation Zrotation
						End Site
						{
							OFFSET 0.000000 18.567114 0.000000
						}
					}
				}
			}
			JOINT Right_ShortSleeve
			{
				OFFSET -0.265923 -10.480953 1.153800
				CHANNELS 3 Xrotation Yrotation Zrotation
				End Site
				{
					OFFSET -1.725766 19.823910 0.000000
				}
			}
		}
	}
	JOINT Spine
	{
		OFFSET 0.000000 13.368103 0.470500
		CHANNELS 3 Xrotation Yrotation Zrotation
		JOINT Spine1
		{
			OFFSET 0.147000 13.837402 0.538800
			CHANNELS 3 Xrotation Yrotation Zrotation
			JOINT Spine2
			{
				OFFSET 0.168000 16.242897 -1.435500
				CHANNELS 3 Xrotation Yrotation Zrotation
				JOINT Neck
				{
					OFFSET 0.217200 18.631500 -1.679100
					CHANNELS 3 Xrotation Yrotation Zrotation
					JOINT Head
					{
						OFFSET 0.000000 6.599396 1.385900
						CHANNELS 3 Xrotation Yrotation Zrotation
						JOINT Hat
						{
							OFFSET -0.532200 27.220596 -10.096100
							CHANNELS 3 Xrotation Yrotation Zrotation
							End Site
							{
								OFFSET 0.000000 22.029861 0.000000
							}
						}
						JOINT HairD
						{
							OFFSET -10.777400 17.437393 -1.325900
							CHANNELS 3 Xrotation Yrotation Zrotation
							JOINT HairD1
							{
								OFFSET -3.290299 -11.051193 1.062200
								CHANNELS 3 Xrotation Yrotation Zrotation
								End Site
								{
									OFFSET 0.000000 11.579437 0.000000
								}
							}
						}
						JOINT HairB
						{
							OFFSET -10.777400 17.437393 1.467900
							CHANNELS 3 Xrotation Yrotation Zrotation
							JOINT HairB1
							{
								OFFSET -1.561200 -12.956299 3.590200
								CHANNELS 3 Xrotation Yrotation Zrotation
								End Site
								{
									OFFSET 0.000000 13.534866 0.000000
								}
							}
						}
						JOINT HairA
						{
							OFFSET 9.713100 17.437393 1.467900
							CHANNELS 3 Xrotation Yrotation Zrotation
							JOINT HairA1
							{
								OFFSET 1.561200 -12.956299 3.590200
								CHANNELS 3 Xrotation Yrotation Zrotation
								End Site
								{
									OFFSET 0.000000 13.534866 0.000000
								}
							}
						}
						JOINT HairC
						{
							OFFSET 9.713100 17.437393 -1.325900
							CHANNELS 3 Xrotation Yrotation Zrotation
							JOINT HairC1
							{
								OFFSET 3.290300 -11.051193 1.062200
								CHANNELS 3 Xrotation Yrotation Zrotation
								End Site
								{
									OFFSET 0.000000 11.579437 0.000000
								}
							}
						}
					}
				}
				JOINT LeftShoulder
				{
					OFFSET 5.101800 15.108002 -2.763700
					CHANNELS 3 Xrotation Yrotation Zrotation
					JOINT LeftArm
					{
						OFFSET 9.825497 2.506317 -1.597400
						CHANNELS 3 Xrotation Yrotation Zrotation
						JOINT LeftForeArm
						{
							OFFSET 21.966244 0.000000 0.000000
							CHANNELS 3 Xrotation Yrotation Zrotation
							JOINT LeftHand
							{
								OFFSET 33.879036 0.000000 0.000000
								CHANNELS 3 Xrotation Yrotation Zrotation
								JOINT LeftHandThumb1
								{
									OFFSET 6.715286 -2.359680 3.363841
									CHANNELS 3 Xrotation Yrotation Zrotation
									JOINT LeftHandThumb2
									{
										OFFSET 2.507072 -1.447464 1.447461
										CHANNELS 3 Xrotation Yrotation Zrotation
										JOINT LeftHandThumb3
										{
											OFFSET 2.898338 -1.673355 1.673357
											CHANNELS 3 Xrotation Yrotation Zrotation
											End Site
											{
												OFFSET -0.295959 3.727692 -0.131651
											}
										}
									}
								}
								JOINT LeftHandIndex1
								{
									OFFSET 14.190811 -0.254547 3.840278
									CHANNELS 3 Xrotation Yrotation Zrotation
									JOINT LeftHandIndex2
									{
										OFFSET 3.551727 0.000000 -0.000000
										CHANNELS 3 Xrotation Yrotation Zrotation
										JOINT LeftHandIndex3
										{
											OFFSET 2.894196 0.000000 0.000000
											CHANNELS 3 Xrotation Yrotation Zrotation
											End Site
											{
												OFFSET -1.000603 2.690872 0.366626
											}
										}
									}
								}
								JOINT LeftHandMiddle1
								{
									OFFSET 13.776489 0.000000 0.000000
									CHANNELS 3 Xrotation Yrotation Zrotation
									JOINT LeftHandMiddle2
									{
										OFFSET 3.438232 0.000000 0.000000
										CHANNELS 3 Xrotation Yrotation Zrotation
										JOINT LeftHandMiddle3
										{
											OFFSET 3.691551 0.000000 0.000000
											CHANNELS 3 Xrotation Yrotation Zrotation
											End Site
											{
												OFFSET -1.082298 3.499527 0.457670
											}
										}
									}
								}
								JOINT LeftHandRing1
								{
									OFFSET 13.966164 -0.268127 -3.067488
									CHANNELS 3 Xrotation Yrotation Zrotation
									JOINT LeftHandRing2
									{
										OFFSET 3.162567 0.000000 0.000000
										CHANNELS 3 Xrotation Yrotation Zrotation
										JOINT LeftHandRing3
										{
											OFFSET 3.324348 0.000000 0.000000
											CHANNELS 3 Xrotation Yrotation Zrotation
											End Site
											{
												OFFSET -0.861900 3.184998 0.405154
											}
										}
									}
								}
								JOINT LeftHandPinky1
								{
									OFFSET 13.131393 -0.168503 -5.746925
									CHANNELS 3 Xrotation Yrotation Zrotation
									JOINT LeftHandPinky2
									{
										OFFSET 2.849182 0.000000 0.000000
										CHANNELS 3 Xrotation Yrotation Zrotation
										JOINT LeftHandPinky3
										{
											OFFSET 2.805038 0.000000 0.000000
											CHANNELS 3 Xrotation Yrotation Zrotation
											End Site
											{
												OFFSET -0.882500 2.642609 0.325652
											}
										}
									}
								}
							}
							JOINT Left_Sleeve
							{
								OFFSET 6.592125 -0.646545 0.805568
								CHANNELS 3 Xrotation Yrotation Zrotation
								End Site
								{
									OFFSET -0.000179 20.275787 -0.000000
								}
							}
						}
					}
				}
				JOINT RightShoulder
				{
					OFFSET -5.731700 15.108002 -2.763700
					CHANNELS 3 Xrotation Yrotation Zrotation
					JOINT RightArm
					{
						OFFSET -9.825497 2.506317 -1.597400
						CHANNELS 3 Xrotation Yrotation Zrotation
						JOINT RightForeArm
						{
							OFFSET -21.966242 0.000000 0.000000
							CHANNELS 3 Xrotation Yrotation Zrotation
							JOINT RightHand
							{
								OFFSET -33.879032 0.000000 0.000000
								CHANNELS 3 Xrotation Yrotation Zrotation
								JOINT RightHandThumb1
								{
									OFFSET -6.715286 -2.359680 3.363841
									CHANNELS 3 Xrotation Yrotation Zrotation
									JOINT RightHandThumb2
									{
										OFFSET -2.507072 -1.447464 1.447461
										CHANNELS 3 Xrotation Yrotation Zrotation
										JOINT RightHandThumb3
										{
											OFFSET -2.898338 -1.673355 1.673357
											CHANNELS 3 Xrotation Yrotation Zrotation
											End Site
											{
												OFFSET 0.295959 3.727692 -0.131651
											}
										}
									}
								}
								JOINT RightHandIndex1
								{
									OFFSET -14.190811 -0.254547 3.840278
									CHANNELS 3 Xrotation Yrotation Zrotation
									JOINT RightHandIndex2
									{
										OFFSET -3.551727 0.000000 -0.000000
										CHANNELS 3 Xrotation Yrotation Zrotation
										JOINT RightHandIndex3
										{
											OFFSET -2.894196 0.000000 0.000000
											CHANNELS 3 Xrotation Yrotation Zrotation
											End Site
											{
												OFFSET 1.000603 2.690872 0.366626
											}
										}
									}
								}
								JOINT RightHandMiddle1
								{
									OFFSET -13.776489 0.000000 0.000000
									CHANNELS 3 Xrotation Yrotation Zrotation
									JOINT RightHandMiddle2
									{
										OFFSET -3.438232 0.000000 0.000000
										CHANNELS 3 Xrotation Yrotation Zrotation
										JOINT RightHandMiddle3
										{
											OFFSET -3.691551 0.000000 0.000000
											CHANNELS 3 Xrotation Yrotation Zrotation
											End Site
											{
												OFFSET 1.082298 3.499527 0.457670
											}
										}
									}
								}
								JOINT RightHandRing1
								{
									OFFSET -13.966164 -0.268127 -3.067488
									CHANNELS 3 Xrotation Yrotation Zrotation
									JOINT RightHandRing2
									{
										OFFSET -3.162567 0.000000 0.000000
										CHANNELS 3 Xrotation Yrotation Zrotation
										JOINT RightHandRing3
										{
											OFFSET -3.324348 0.000000 0.000000
											CHANNELS 3 Xrotation Yrotation Zrotation
											End Site
											{
												OFFSET 0.861900 3.184998 0.405154
											}
										}
									}
								}
								JOINT RightHandPinky1
								{
									OFFSET -13.131393 -0.168503 -5.746925
									CHANNELS 3 Xrotation Yrotation Zrotation
									JOINT RightHandPinky2
									{
										OFFSET -2.849182 0.000000 0.000000
										CHANNELS 3 Xrotation Yrotation Zrotation
										JOINT RightHandPinky3
										{
											OFFSET -2.805038 0.000000 0.000000
											CHANNELS 3 Xrotation Yrotation Zrotation
											End Site
											{
												OFFSET 0.882500 2.642609 0.325652
											}
										}
									}
								}
							}
							JOINT Right_Sleeve
							{
								OFFSET -6.592125 -0.646545 0.805568
								CHANNELS 3 Xrotation Yrotation Zrotation
								End Site
								{
									OFFSET 0.000179 20.275787 -0.000000
								}
							}
						}
					}
				}
				JOINT Bind_Right_JacketString
				{
					OFFSET -3.534800 11.969597 7.200700
					CHANNELS 3 Xrotation Yrotation Zrotation
					JOINT Bind_Right_JacketString1
					{
						OFFSET -0.319900 -6.102600 2.794100
						CHANNELS 3 Xrotation Yrotation Zrotation
						End Site
						{
							OFFSET 0.000000 6.719452 0.000000
						}
					}
				}
				JOINT Bind_Left_JacketString
				{
					OFFSET 2.904800 11.969597 7.200700
					CHANNELS 3 Xrotation Yrotation Zrotation
					JOINT Bind_Left_JacketString1
					{
						OFFSET 0.364800 -5.904503 3.186800
						CHANNELS 3 Xrotation Yrotation Zrotation
						End Site
						{
							OFFSET 0.000000 6.719513 0.000000
						}
					}
				}
				JOINT HairE
				{
					OFFSET 5.915200 17.612701 -11.592200
					CHANNELS 3 Xrotation Yrotation Zrotation
					JOINT HairE1
					{
						OFFSET 0.289200 -7.171898 -1.284500
						CHANNELS 3 Xrotation Yrotation Zrotation
						End Site
						{
							OFFSET 0.000000 7.291756 0.000000
						}
					}
				}
				JOINT HairF
				{
					OFFSET -0.864800 17.612701 -11.592200
					CHANNELS 3 Xrotation Yrotation Zrotation
					JOINT HairF1
					{
						OFFSET 0.000000 -14.087097 -2.127501
						CHANNELS 3 Xrotation Yrotation Zrotation
						End Site
						{
							OFFSET 0.000000 14.246841 0.000000
						}
					}
				}
				JOINT HairG
				{
					OFFSET -8.087700 17.612701 -11.592200
					CHANNELS 3 Xrotation Yrotation Zrotation
					JOINT HairG1
					{
						OFFSET -0.293600 -6.081398 -0.910100
						CHANNELS 3 Xrotation Yrotation Zrotation
						End Site
						{
							OFFSET 0.000000 6.156120 0.000000
						}
					}
				}
			}
		}
	}
	JOINT Pouch
	{
		OFFSET 0.000000 4.394501 10.847300
		CHANNELS 3 Xrotation Yrotation Zrotation
		End Site
		{
			OFFSET 0.000000 21.880577 0.000000
		}
	}
	JOINT Bag
	{
		OFFSET -13.229000 4.813004 -0.593300
		CHANNELS 3 Xrotation Yrotation Zrotation
		End Site
		{
			OFFSET 0.000000 21.880577 0.000000
		}
	}
	JOINT OccupyGuyFacialAnim_Joint
	{
		OFFSET 1.000000 -70.206398 -1.655000
		CHANNELS 3 Xrotation Yrotation Zrotation
		End Site
		{
			OFFSET 0.000000 21.880577 0.000000
		}
	}
}
MOTION
Frames: 4
Frame Time: 0.033333
1.120804 35.089485 -1.289772 42.682317 -51.978057 32.657866 -0.000000 -0.000002 0.000001 -104.893189 -22.513174 38.215083 115.160500 -20.989299 0.817021 -28.460304 -6.303038 -13.507712 -0.000000 0.000002 0.000000 -0.000000 0.000000 0.000001 -116.923987 -0.597434 -31.187528 129.187796 3.860218 -2.618644 -27.906840 -3.255126 1.261788 -0.000001 0.000000 -0.000000 -0.000000 -0.000000 -0.000000 2.919077 -0.532492 -1.055395 7.291718 -1.832973 -2.593653 7.291693 -1.832924 -2.593701 10.228512 26.735555 -15.007298 -43.061747 24.870563 4.446382 0.000001 -0.000000 -0.000000 0.000001 -0.000000 -0.000000 0.000001 -0.000000 -0.000000 0.000001 -0.000000 -0.000000 0.000001 -0.000000 0.000000 0.000001 -0.000000 -0.000000 0.000001 -0.000000 0.000000 0.000001 -0.000000 -0.000000 0.000001 -0.000000 -0.000000 9.763956 -6.504281 -9.302964 -72.516091 -11.556211 -30.916465 36.850814 -14.101077 14.456664 5.855892 -10.179185 -1.871326 40.109924 -15.297122 -0.360532 5.639825 28.097966 11.338786 0.000001 0.000002 0.000002 6.882139 2.840161 -61.140507 8.248003 7.639994 -89.898014 0.000002 -0.000002 -0.000000 -2.345543 4.688890 -62.655299 8.754068 9.897128 -87.051355 -0.000001 0.000004 0.000001 -9.042502 10.045709 -60.766171 8.524081 9.508786 -66.893220 -0.000002 0.000000 -0.000003 -17.946921 14.755136 -51.485997 8.857219 8.678408 -84.811757 0.000000 -0.000002 0.000003 -0.000000 -0.000000 -0.000001 9.055408 13.972993 25.176660 0.597895 2.186996 21.193054 -6.097320 21.564043 4.132486 -3.508739 -2.212380 1.920834 -2.346021 -6.100703 10.731370 2.363994 -23.806419 -8.771174 -0.000000 0.000001 0.000001 -0.062739 0.530679 0.734233 0.005982 -0.100484 5.082092 -0.000001 0.000001 0.000000 0.354756 -5.916405 2.583201 1.432734 -4.204163 24.052726 0.000003 0.000003 -0.000000 1.205861 -11.756075 4.154190 1.798605 -3.779073 26.866150 0.000002 -0.000003 -0.000003 2.126264 -19.166704 11.319069 3.363427 -2.108370 18.830446 -0.000001 0.000006 -0.000000 -0.000001 -0.000002 -0.000002 -0.000003 0.000000 -0.000001 -0.000001 0.000001 -0.000000 -0.000003 0.000000 0.000002 -0.000003 0.000000 0.000002 -0.000003 0.000000 -0.000001 -0.000001 0.000001 -0.000000 -0.000003 0.000000 0.000002 -0.000003 0.000000 0.000002 -0.000003 0.000000 -0.000001 -0.000001 0.000001 -0.000000 -0.000000 -0.000002 0.000001 -0.000000 -0.000002 0.000001 -0.000000 -0.000002 0.000001 
1.061886 35.302765 -1.682583 44.166011 -52.162018 34.047851 -0.000000 -0.000001 0.000001 -104.513355 -22.702710 38.624662 114.250418 -20.606737 0.864156 -28.372056 -5.887367 -14.425385 0.000000 -0.000000 0.000000 0.000001 0.000000 0.000001 -117.027710 -2.312558 -30.289775 128.173841 3.215486 -2.691220 -29.521983 -3.029576 0.467599 -0.000000 0.000000 0.000000 -0.000000 0.000000 -0.000001 2.742446 -0.236967 -1.321811 7.283277 -1.595997 -2.457782 7.273929 -1.587983 -2.490851 9.192001 25.632231 -13.772218 -42.692890 23.583137 4.167124 0.000000 -0.000000 -0.000000 0.000000 -0.000000 -0.000000 0.000000 -0.000000 0.000000 0.000000 -0.000000 -0.000000 0.000001 -0.000001 0.000001 0.000000 -0.000000 -0.000000 0.000001 -0.000001 0.000001 0.000000 -0.000000 -0.000000 0.000000 -0.000000 -0.000000 9.849661 -6.588008 -9.281582 -72.766015 -11.105952 -30.882229 35.995001 -14.230895 13.958246 6.624781 -10.442778 -1.655955 40.109931 -15.297120 -0.360526 5.639820 28.097957 11.338789 0.000002 0.000002 0.000001 6.882141 2.840154 -61.140493 8.248001 7.639997 -89.898007 0.000001 0.000000 -0.000002 -2.345543 4.688887 -62.655292 8.754073 9.897129 -87.051355 -0.000001 0.000000 -0.000001 -9.042502 10.045706 -60.766164 8.524085 9.508786 -66.893233 -0.000000 0.000000 -0.000003 -17.946923 14.755135 -51.485993 8.857220 8.678408 -84.811757 0.000000 0.000001 0.000003 0.000000 0.000001 0.000003 9.334509 13.352918 24.803702 -1.557410 2.434500 21.817772 -5.831045 24.814180 3.916784 -3.721324 -1.120693 3.802456 -2.318331 -5.976974 10.545306 2.350505 -23.391045 -8.592171 0.000002 0.000002 0.000002 -0.061710 0.521035 0.731863 0.006403 -0.098583 4.985929 -0.000002 0.000001 0.000000 0.345413 -5.811027 2.537102 1.374007 -4.140339 23.620654 0.000001 0.000003 0.000003 1.170846 -11.547516 4.075985 1.733670 -3.727184 26.383989 -0.000003 0.000004 -0.000002 2.018129 -18.831743 11.104250 3.291198 -2.090238 18.491912 -0.000000 -0.000001 -0.000001 0.000001 0.000002 0.000001 -0.000001 0.000001 -0.000002 -0.000001 -0.000003 -0.000000 -0.000001 0.000001 -0.000002 -0.000001 0.000001 -0.000002 -0.000001 0.000001 -0.000002 -0.000001 -0.000003 -0.000000 -0.000001 0.000001 -0.000002 -0.000001 0.000001 -0.000002 -0.000001 0.000001 -0.000002 -0.000001 -0.000003 -0.000000 -0.000000 -0.000001 0.000001 -0.000000 -0.000001 0.000001 -0.000000 -0.000001 0.000001 
0.952539 35.611710 -2.091778 45.966050 -52.539786 35.673897 0.000001 -0.000000 0.000000 -103.749522 -22.925262 39.357804 113.190926 -20.345086 0.905788 -28.400961 -5.279248 -15.361341 0.000000 -0.000000 0.000000 0.000000 -0.000002 -0.000001 -116.186354 -4.635167 -29.008995 126.803282 2.641798 -2.778648 -32.500721 -2.892132 -0.386152 -0.000000 -0.000000 0.000000 -0.000000 0.000000 0.000000 2.556681 0.068058 -1.527458 7.297191 -1.358995 -2.305287 7.279022 -1.338908 -2.371686 8.046141 24.053541 -12.168087 -42.318910 21.813831 3.865251 -0.000000 -0.000000 -0.000001 -0.000000 -0.000000 -0.000001 -0.000000 -0.000000 -0.000001 -0.000000 -0.000000 -0.000001 -0.000000 -0.000000 -0.000000 -0.000000 -0.000000 -0.000001 -0.000000 -0.000000 -0.000000 -0.000000 -0.000000 -0.000001 -0.000000 -0.000000 -0.000001 10.017435 -6.507921 -9.054107 -73.086658 -10.667050 -31.095512 35.070549 -14.224858 13.320045 7.433859 -10.767797 -1.376068 40.109931 -15.297120 -0.360527 5.639817 28.097959 11.338786 -0.000003 0.000002 0.000001 6.882140 2.840158 -61.140500 8.248001 7.639996 -89.898007 0.000002 -0.000003 -0.000004 -2.345543 4.688891 -62.655292 8.754068 9.897129 -87.051355 0.000002 -0.000001 -0.000001 -9.042505 10.045707 -60.766164 8.524080 9.508787 -66.893227 -0.000001 0.000001 0.000000 -17.946928 14.755138 -51.485990 8.857221 8.678412 -84.811750 0.000001 -0.000000 0.000003 -0.000001 0.000000 -0.000002 9.401384 13.462242 25.146369 -3.332615 2.313183 21.719184 -5.556138 28.173784 3.771542 -3.998360 -0.000887 5.651838 -2.235334 -5.643006 10.028885 2.307363 -22.238649 -8.103197 0.000001 -0.000001 0.000003 -0.058631 0.494857 0.685934 0.007423 -0.093789 4.740422 -0.000000 0.000002 0.000002 0.320066 -5.519042 2.407488 1.221922 -3.958943 22.428717 -0.000003 -0.000003 -0.000001 1.071972 -10.970505 3.859781 1.559451 -3.579292 25.052488 -0.000002 -0.000001 -0.000003 1.733078 -17.902354 10.514002 3.093296 -2.035825 17.557054 0.000002 0.000001 0.000001 0.000000 0.000002 -0.000001 -0.000002 -0.000001 -0.000001 0.000001 0.000000 -0.000001 -0.000002 -0.000001 -0.000000 -0.000002 -0.000001 -0.000000 -0.000002 -0.000001 -0.000001 0.000001 0.000000 -0.000000 -0.000002 -0.000001 -0.000000 -0.000002 -0.000001 -0.000000 -0.000002 -0.000001 -0.000001 0.000001 0.000000 -0.000000 0.000001 -0.000000 0.000000 0.000001 -0.000000 0.000000 0.000001 -0.000000 0.000000 
0.811150 35.972553 -2.513460 47.930777 -53.017014 37.437407 -0.000002 0.000000 -0.000001 -102.721114 -23.141191 40.267872 112.037485 -20.123071 0.948264 -28.489344 -4.560451 -16.330590 0.000000 0.000002 0.000000 0.000000 -0.000001 -0.000003 -114.918370 -7.088116 -27.527138 125.264495 2.356442 -2.854069 -35.736711 -2.891133 -1.378458 -0.000000 0.000000 -0.000000 -0.000000 0.000000 -0.000000 2.271321 0.385088 -1.643204 7.363941 -1.105556 -2.118303 7.336669 -1.065643 -2.219759 6.476475 21.217206 -9.718863 -41.734413 18.553722 3.538160 0.000001 0.000001 -0.000000 0.000001 0.000001 -0.000000 0.000001 0.000001 -0.000000 0.000001 0.000001 -0.000001 -0.000001 0.000003 -0.000001 0.000001 0.000001 -0.000001 -0.000001 0.000003 -0.000001 0.000001 0.000001 -0.000000 0.000001 0.000001 -0.000000 10.112993 -6.569876 -9.008708 -73.351464 -10.216550 -31.083002 34.205249 -14.304335 12.797935 8.209540 -11.036623 -1.132092 40.109927 -15.297120 -0.360532 5.639824 28.097955 11.338782 -0.000001 0.000001 0.000001 6.882139 2.840159 -61.140500 8.248005 7.639996 -89.898007 0.000001 -0.000000 -0.000000 -2.345544 4.688889 -62.655292 8.754072 9.897129 -87.051355 -0.000001 0.000002 0.000001 -9.042502 10.045706 -60.766171 8.524083 9.508787 -66.893220 -0.000001 0.000001 -0.000001 -17.946921 14.755136 -51.485993 8.857219 8.678410 -84.811750 -0.000001 -0.000001 0.000003 0.000000 0.000002 0.000001 9.523090 13.089637 24.775051 -5.273235 2.500224 22.156046 -5.023409 31.521600 3.514576 -4.252249 1.105665 7.202293 -2.108997 -5.131138 9.243740 2.225881 -20.482349 -7.376574 0.000000 0.000001 0.000001 -0.054067 0.455221 0.632383 0.009085 -0.086340 4.358704 -0.000001 0.000001 0.000000 0.284252 -5.075893 2.212883 1.006768 -3.675083 20.618654 0.000001 0.000002 -0.000002 0.930442 -10.093291 3.534030 1.309887 -3.343285 23.031058 -0.000001 0.000001 -0.000001 1.339895 -16.484552 9.629619 2.797855 -1.941911 16.138202 0.000002 -0.000004 -0.000000 0.000000 -0.000002 0.000002 -0.000001 -0.000001 0.000000 0.000001 0.000000 -0.000002 -0.000001 -0.000001 0.000001 -0.000001 -0.000001 0.000001 -0.000001 -0.000001 0.000000 0.000001 0.000000 -0.000001 -0.000001 -0.000001 0.000001 -0.000001 -0.000001 0.000001 -0.000001 -0.000001 0.000000 0.000001 0.000000 -0.000001 -0.000002 0.000000 -0.000001 -0.000002 0.000000 -0.000001 -0.000002 0.000000 -0.000001 
